# xmcd
#
# Track frame offsets:
#	150
#	16833
#	29161
#	42690
#	63697
#	80372
#	96322
#	110706
#	126232
#	142511
#
# Disc length: 2089 seconds
#
# Revision: 0
# Processed by: cddbd v1.5.1PL0 Copyright (c) Steve Scherf et al.
# Submitted via: dBpowerAMP V4.0
#
DISCID=8c08270a
DTITLE=Alicia Kay - My everything
DYEAR=1900
DGENRE=Country
TTITLE0=Tears Are Ready To Roll
TTITLE1=It Didn't Hurt Enough
TTITLE2=Kiss And Tell
TTITLE3=Baby Don't Baby Me
TTITLE4=In The Pines
TTITLE5=Without You
TTITLE6=What's A Matter With You
TTITLE7=Right Here, Right Now
TTITLE8=Picture Of Me Without You
TTITLE9=My Evrything
EXTD=
EXTT0=
EXTT1=
EXTT2=
EXTT3=
EXTT4=
EXTT5=
EXTT6=
EXTT7=
EXTT8=
EXTT9=
PLAYORDER=
